<svg xmlns="http://www.w3.org/2000/svg" fill-rule="evenodd" stroke-linejoin="round" stroke-miterlimit="2" clip-rule="evenodd" viewBox="0 0 69 84">
  <path fill="currentColor" fill-rule="nonzero" d="M33.638 39.453c1.221 0 2.198-.391 2.93-1.123l15.43-15.527c.83-.782 1.221-1.807 1.221-2.979 0-1.074-.44-2.197-1.221-2.93L36.568 1.221C35.836.439 34.81 0 33.638 0c-2.246 0-4.052 1.855-4.052 4.199 0 1.074.439 2.051 1.123 2.832l8.203 7.91a36.845 36.845 0 00-4.59-.293c-19.043 0-34.326 15.283-34.326 34.375S15.377 83.496 34.42 83.496s34.424-15.381 34.424-34.473c0-2.49-1.758-4.297-4.248-4.297-2.442 0-4.053 1.807-4.053 4.297 0 14.453-11.67 26.172-26.123 26.172-14.453 0-26.123-11.719-26.123-26.172 0-14.599 11.572-26.22 26.025-26.22 2.197 0 4.151.146 5.957.439l-9.521 9.326c-.733.781-1.172 1.709-1.172 2.783 0 2.344 1.806 4.102 4.052 4.102z"/>
</svg>