<svg xmlns="http://www.w3.org/2000/svg" fill-rule="evenodd" stroke-linejoin="round" stroke-miterlimit="2" clip-rule="evenodd" viewBox="0 0 73 72">
  <path fill="currentColor" fill-rule="nonzero" d="M67.38 4.83C63.28.73 57.56 0 50.73 0H21.38C14.6 0 8.88.73 4.78 4.83.63 8.93 0 14.6 0 21.4v29.05c0 6.84.63 12.5 4.78 16.6 4.1 4.15 9.82 4.84 16.6 4.84h29.35c6.83 0 12.55-.69 16.65-4.84 4.15-4.1 4.78-9.76 4.78-16.6v-29c0-6.84-.63-12.5-4.78-16.6zM63.8 20.36v31.15c0 3.72-.39 7.38-2.49 9.48-2.1 2.1-5.8 2.54-9.52 2.54H20.3c-3.65 0-7.36-.44-9.46-2.54-2.1-2.1-2.54-5.76-2.54-9.48V20.36c0-3.7.44-7.37 2.54-9.47 2.1-2.1 5.8-2.54 9.52-2.54H51.8c3.71 0 7.42.44 9.52 2.54 2.1 2.1 2.5 5.76 2.5 9.47zM47.8 46c2.1 0 3.47-1.57 3.47-3.81V24.9c0-2.93-1.66-4.2-4.3-4.2H29.59c-2.25 0-3.71 1.37-3.71 3.47s1.46 3.47 3.75 3.47h5.33l5.27-.69-6.05 5.52-12.16 12.11a4.1 4.1 0 00-1.17 2.69 3.54 3.54 0 003.7 3.7c1.13 0 2.06-.38 2.84-1.16l12.1-12.11 5.48-5.96-.69 5.32v5.18c0 2.3 1.37 3.76 3.52 3.76z"/>
</svg>
