<svg xmlns="http://www.w3.org/2000/svg" fill-rule="evenodd" stroke-linejoin="round" stroke-miterlimit="2" clip-rule="evenodd" viewBox="0 0 86 82">
  <path fill="currentColor" fill-rule="nonzero" d="M24.95 81.6c2.39 0 4.15-1.18 7.08-3.77l12.99-11.57h21.72c12.02 0 18.66-6.79 18.66-18.6v-29C85.4 6.78 78.76 0 66.74 0h-48.1C6.65 0 0 6.79 0 18.65v29c0 11.82 6.78 18.61 18.36 18.61h1.22v9.23c0 3.76 2 6.1 5.37 6.1zm2.1-9.38v-10.8c0-2.53-1.03-3.46-3.47-3.46h-4.74c-7.27 0-10.54-3.52-10.54-10.55V18.9c0-7.03 3.27-10.55 10.54-10.55h47.7c7.28 0 10.5 3.52 10.5 10.55V47.4c0 7.03-3.22 10.55-10.5 10.55H44.49c-2.54 0-3.76.39-5.47 2.2L27.05 72.22z"/>
</svg>
