<svg xmlns="http://www.w3.org/2000/svg" fill-rule="evenodd" stroke-linejoin="round" stroke-miterlimit="2" clip-rule="evenodd" viewBox="0 0 80 80">
  <path fill="currentColor" fill-rule="nonzero" d="M39.888 79.786c21.827 0 39.893-18.067 39.893-39.893S61.666 0 39.84 0C18.014 0-.004 18.067-.004 39.893s18.066 39.893 39.892 39.893zm0-8.643c-17.333 0-31.201-13.916-31.201-31.25S22.506 8.692 39.84 8.692c17.334 0 31.201 13.867 31.25 31.201.049 17.334-13.867 31.25-31.202 31.25zM21.969 45.85c3.271 0 5.957-2.685 5.957-5.957 0-3.271-2.735-5.957-5.957-5.957a5.95 5.95 0 00-5.957 5.957 5.949 5.949 0 005.957 5.957zm17.871 0c3.271 0 5.957-2.685 5.957-5.957 0-3.271-2.686-5.957-5.957-5.957-3.272 0-5.957 2.686-5.957 5.957 0 3.272 2.685 5.957 5.957 5.957zm17.871 0c3.271 0 5.957-2.685 5.957-5.957 0-3.271-2.686-5.957-5.957-5.957a5.95 5.95 0 00-5.957 5.957 5.95 5.95 0 005.957 5.957z"/>
</svg>