<svg xmlns="http://www.w3.org/2000/svg" fill-rule="evenodd" stroke-linejoin="round" stroke-miterlimit="2" clip-rule="evenodd" viewBox="0 0 84 84">
  <path fill="currentColor" fill-rule="nonzero" d="M38.03 83.79h7.77c3.32 0 5.95-2.1 6.69-5.23l1.56-6.64.68-.24 5.76 3.56a6.7 6.7 0 008.45-1.07l5.37-5.37c2.35-2.4 2.79-5.71 1.03-8.4l-3.57-5.76.25-.64 6.59-1.51a6.82 6.82 0 005.22-6.74v-7.52c0-3.27-2.05-5.9-5.22-6.69l-6.5-1.6-.29-.7 3.57-5.7c1.75-2.74 1.31-6.01-1.08-8.5L69 9.72a6.75 6.75 0 00-8.45-1.08l-5.76 3.47-.73-.24-1.56-6.65A6.68 6.68 0 0045.79 0h-7.76a6.68 6.68 0 00-6.69 5.22l-1.56 6.65-.78.24-5.76-3.47a6.68 6.68 0 00-8.4 1.08l-5.37 5.32c-2.35 2.49-2.79 5.76-1.03 8.5l3.57 5.7-.3.7-6.54 1.6A6.72 6.72 0 000 38.24v7.51c0 3.27 2.1 5.96 5.17 6.74L11.81 54l.2.64-3.57 5.76c-1.7 2.69-1.27 6 1.08 8.4l5.37 5.37a6.7 6.7 0 008.45 1.07l5.76-3.56.68.24 1.56 6.64a6.68 6.68 0 006.7 5.23zm1.03-7.72c-.54 0-.73-.2-.83-.63l-2.3-9.52a20.91 20.91 0 01-6.88-2.88l-8.4 5.12c-.34.25-.68.2-1.07-.14l-3.96-3.96c-.34-.3-.3-.63-.1-1.02l5.13-8.35a24.14 24.14 0 01-2.78-6.84l-9.53-2.24c-.43-.1-.68-.3-.68-.83V39.2c0-.54.2-.73.68-.83l9.48-2.3c.63-2.68 1.8-5.17 2.78-6.88l-5.13-8.3c-.24-.44-.24-.78.1-1.12l3.96-3.91c.39-.34.68-.4 1.12-.15l8.3 5.03a26.08 26.08 0 016.98-2.88l2.3-9.52c.1-.44.3-.64.83-.64h5.71c.49 0 .73.2.83.64l2.3 9.57c2.63.63 4.98 1.7 6.93 2.88l8.3-5.08c.49-.2.73-.2 1.12.15l3.96 3.9c.39.35.34.69.1 1.13l-5.08 8.3c.93 1.7 2.15 4.15 2.73 6.88l9.52 2.3c.5.1.64.3.64.83v5.57c0 .53-.2.73-.64.83l-9.52 2.29a25.34 25.34 0 01-2.83 6.79l5.13 8.3c.24.39.24.73-.1 1.07l-3.96 3.96c-.39.34-.73.39-1.07.14l-8.35-5.12a22 22 0 01-6.88 2.88l-2.3 9.52c-.1.44-.34.63-.83.63h-5.71zm2.83-19.62c8 0 14.5-6.55 14.5-14.56 0-7.9-6.5-14.45-14.5-14.45-7.96 0-14.5 6.54-14.5 14.45 0 8.01 6.54 14.56 14.5 14.56zm0-7.33a7.18 7.18 0 010-14.36 7.17 7.17 0 010 14.36z"/>
</svg>
