<svg xmlns="http://www.w3.org/2000/svg" fill-rule="evenodd" stroke-linejoin="round" stroke-miterlimit="2" clip-rule="evenodd" viewBox="0 0 70 89">
  <path fill="currentColor" fill-rule="nonzero" d="M34.96 57.47a3.9 3.9 0 003.9-3.86V16.06l-.34-5.76 1.95 2.44 4.99 5.37a3.49 3.49 0 002.63 1.18c1.96 0 3.52-1.42 3.52-3.37 0-1.03-.4-1.8-1.13-2.54L37.88 1.37A3.82 3.82 0 0034.97 0c-1.08 0-1.96.34-2.98 1.37l-12.6 12a3.4 3.4 0 00-1.12 2.55 3.37 3.37 0 003.46 3.37c.98 0 2-.4 2.69-1.18l4.98-5.37 1.95-2.44-.34 5.76v37.55c0 2.1 1.76 3.86 3.96 3.86zM12.94 88.28h43.99c8.54 0 12.94-4.4 12.94-12.8V38.34c0-8.45-4.4-12.8-12.94-12.8h-10.2v8.3h9.71c3.27 0 5.13 1.72 5.13 5.18v35.75c0 3.46-1.86 5.17-5.13 5.17H13.42c-3.27 0-5.12-1.7-5.12-5.17V39c0-3.46 1.85-5.17 5.12-5.17h9.82v-8.3h-10.3C4.44 25.54 0 29.88 0 38.33v37.16c0 8.44 4.44 12.8 12.94 12.8z"/>
</svg>
