<svg xmlns="http://www.w3.org/2000/svg" xml:space="preserve" fill-rule="evenodd" stroke-linejoin="round" stroke-miterlimit="2" clip-rule="evenodd" viewBox="0 0 79 79">
  <g fill="currentColor" fill-rule="nonzero">
    <path d="M39.4 78.808c5.404 0 10.482-1.025 15.235-3.076a39.872 39.872 0 0 0 12.573-8.545 40.72 40.72 0 0 0 8.545-12.597c2.067-4.753 3.1-9.815 3.1-15.186s-1.033-10.433-3.1-15.186a40.502 40.502 0 0 0-8.57-12.597 40.146 40.146 0 0 0-12.597-8.545C49.833 1.025 44.755 0 39.351 0 33.98 0 28.919 1.025 24.166 3.076s-8.936 4.899-12.549 8.545a40.926 40.926 0 0 0-8.52 12.597C1.029 28.971-.004 34.033-.004 39.404S1.029 49.837 3.097 54.59a40.718 40.718 0 0 0 8.544 12.597 39.865 39.865 0 0 0 12.574 8.545c4.752 2.051 9.814 3.076 15.185 3.076Zm0-7.421c-4.427 0-8.569-.822-12.426-2.466-3.858-1.644-7.243-3.931-10.157-6.861-2.913-2.929-5.192-6.331-6.836-10.205-1.644-3.873-2.466-8.024-2.466-12.451 0-4.427.814-8.577 2.442-12.451 1.627-3.874 3.898-7.275 6.811-10.205 2.914-2.93 6.299-5.217 10.157-6.861 3.857-1.643 7.999-2.465 12.426-2.465 4.46 0 8.619.822 12.476 2.465a32.005 32.005 0 0 1 10.181 6.861c2.929 2.93 5.224 6.331 6.884 10.205 1.661 3.874 2.491 8.024 2.491 12.451 0 4.427-.822 8.578-2.466 12.451-1.644 3.874-3.923 7.276-6.836 10.205-2.914 2.93-6.307 5.217-10.181 6.861-3.873 1.644-8.04 2.466-12.5 2.466Z"/>
    <path d="M26.51 55.81c1.009 0 1.839-.341 2.49-1.025l10.4-10.449 10.401 10.449c.716.684 1.546 1.025 2.49 1.025.944 0 1.758-.341 2.441-1.025.684-.684 1.026-1.514 1.026-2.49 0-.944-.342-1.758-1.026-2.442l-10.4-10.4 10.449-10.498c.684-.684 1.026-1.481 1.026-2.393 0-.976-.342-1.798-1.026-2.466-.683-.667-1.497-1.001-2.441-1.001-.879 0-1.677.342-2.393 1.026L39.4 34.619 28.902 24.17c-.618-.684-1.416-1.026-2.392-1.026-.944 0-1.758.334-2.442 1.001-.683.668-1.025 1.49-1.025 2.466 0 .944.342 1.742 1.025 2.393l10.401 10.449-10.401 10.449a3.179 3.179 0 0 0-1.025 2.393c0 .976.342 1.806 1.025 2.49.684.684 1.498 1.025 2.442 1.025Z"/>
  </g>
</svg>