<svg xmlns="http://www.w3.org/2000/svg" fill-rule="evenodd" stroke-linejoin="round" stroke-miterlimit="2" clip-rule="evenodd" viewBox="0 0 63 63">
  <defs/>
  <path fill="currentColor" fill-rule="nonzero" d="M1.373 54.163c-1.807 1.758-1.856 4.883 0 6.689 1.855 1.856 4.98 1.807 6.738.049l22.998-23.047 23.047 23.047c1.758 1.807 4.883 1.807 6.69-.049 1.855-1.855 1.855-4.931.048-6.738L37.896 31.116 60.894 8.118c1.807-1.807 1.807-4.932-.048-6.738-1.856-1.807-4.932-1.807-6.69 0L31.109 24.378 8.111 1.331C6.353-.427 3.18-.476 1.373 1.38c-1.807 1.855-1.807 4.98 0 6.738l22.998 22.998L1.373 54.163z"/>
</svg>